{
  "accessors": [
    {
      "bufferView": 2,
      "componentType": 5126,
      "count": 3541,
      "max": [
        0.09495175629854202,
        0.06089102476835251,
        0.09495175629854202
      ],
      "min": [
        -0.09495175629854202,
        -8.940696716308594e-08,
        -0.09495175629854202
      ],
      "type": "VEC3"
    },
    {
      "bufferView": 2,
      "byteOffset": 42492,
      "componentType": 5126,
      "count": 3541,
      "max": [
        0.9994911551475525,
        1.0,
        0.9994911551475525
      ],
      "min": [
        -0.9994911551475525,
        -1.0,
        -0.9994911551475525
      ],
      "type": "VEC3"
    },
    {
      "bufferView": 3,
      "componentType": 5126,
      "count": 3541,
      "max": [
        0.9998524188995361,
        0.9983885884284973,
        0.9999193549156189,
        1.0
      ],
      "min": [
        -0.9999996423721313,
        -0.9983974099159241,
        -0.9998524188995361,
        -1.0
      ],
      "type": "VEC4"
    },
    {
      "bufferView": 1,
      "componentType": 5126,
      "count": 3541,
      "max": [
        1.0000001192092896,
        1.0
      ],
      "min": [
        0.0,
        0.003537774085998535
      ],
      "type": "VEC2"
    },
    {
      "bufferView": 1,
      "byteOffset": 28328,
      "componentType": 5126,
      "count": 3541,
      "max": [
        1.0000001192092896,
        1.0
      ],
      "min": [
        0.0,
        0.003537774085998535
      ],
      "type": "VEC2"
    },
    {
      "bufferView": 0,
      "componentType": 5125,
      "count": 18039,
      "type": "SCALAR"
    },
    {
      "bufferView": 2,
      "byteOffset": 84984,
      "componentType": 5126,
      "count": 2143,
      "max": [
        0.09999998658895493,
        0.23221001029014587,
        0.09999997913837433
      ],
      "min": [
        -0.09999997168779373,
        0.03220999985933304,
        -0.10000000149011612
      ],
      "type": "VEC3"
    },
    {
      "bufferView": 2,
      "byteOffset": 110700,
      "componentType": 5126,
      "count": 2143,
      "max": [
        1.0,
        1.0,
        1.0
      ],
      "min": [
        -1.0,
        -1.0,
        -1.0
      ],
      "type": "VEC3"
    },
    {
      "bufferView": 3,
      "byteOffset": 56656,
      "componentType": 5126,
      "count": 2143,
      "max": [
        1.0,
        0.02483188360929489,
        1.0,
        -1.0
      ],
      "min": [
        -1.0,
        -0.024831673130393028,
        -1.0,
        -1.0
      ],
      "type": "VEC4"
    },
    {
      "bufferView": 1,
      "byteOffset": 56656,
      "componentType": 5126,
      "count": 2143,
      "max": [
        1.0,
        1.0
      ],
      "min": [
        0.0,
        0.0
      ],
      "type": "VEC2"
    },
    {
      "bufferView": 1,
      "byteOffset": 73800,
      "componentType": 5126,
      "count": 2143,
      "max": [
        1.0,
        1.0
      ],
      "min": [
        0.0,
        0.0
      ],
      "type": "VEC2"
    },
    {
      "bufferView": 0,
      "byteOffset": 72156,
      "componentType": 5125,
      "count": 11904,
      "type": "SCALAR"
    },
    {
      "bufferView": 2,
      "byteOffset": 136416,
      "componentType": 5126,
      "count": 2143,
      "max": [
        0.0950000137090683,
        0.22721000015735626,
        0.09499999135732651
      ],
      "min": [
        -0.09499999135732651,
        0.03721000626683235,
        -0.0950000137090683
      ],
      "type": "VEC3"
    },
    {
      "bufferView": 2,
      "byteOffset": 162132,
      "componentType": 5126,
      "count": 2143,
      "max": [
        1.0,
        1.0,
        1.0
      ],
      "min": [
        -1.0,
        -1.0,
        -1.0
      ],
      "type": "VEC3"
    },
    {
      "bufferView": 1,
      "byteOffset": 90944,
      "componentType": 5126,
      "count": 2143,
      "max": [
        1.0,
        1.0
      ],
      "min": [
        0.0,
        0.0
      ],
      "type": "VEC2"
    },
    {
      "bufferView": 1,
      "byteOffset": 108088,
      "componentType": 5126,
      "count": 2143,
      "max": [
        1.0,
        1.0
      ],
      "min": [
        0.0,
        0.0
      ],
      "type": "VEC2"
    },
    {
      "bufferView": 0,
      "byteOffset": 119772,
      "componentType": 5125,
      "count": 11904,
      "type": "SCALAR"
    },
    {
      "bufferView": 4,
      "componentType": 5126,
      "count": 2001,
      "max": [
        83.33333587646484
      ],
      "min": [
        0.0
      ],
      "type": "SCALAR"
    },
    {
      "bufferView": 5,
      "componentType": 5126,
      "count": 2001,
      "max": [
        0.0,
        0.9999987483024597,
        -0.0,
        1.0
      ],
      "min": [
        0.0,
        -1.0,
        -0.0,
        7.549790126404332e-08
      ],
      "type": "VEC4"
    }
  ],
  "animations": [
    {
      "channels": [
        {
          "sampler": 0,
          "target": {
            "node": 8,
            "path": "rotation"
          }
        }
      ],
      "name": "Animation",
      "samplers": [
        {
          "input": 17,
          "interpolation": "LINEAR",
          "output": 18
        }
      ]
    }
  ],
  "asset": {
    "extras": {
      "author": "WwWuengy (https://sketchfab.com/wwwuengy)",
      "license": "CC-BY-4.0 (http://creativecommons.org/licenses/by/4.0/)",
      "source": "https://sketchfab.com/3d-models/venus-planet-bedside-lamp-0af6495083d74c2db284201afb8409ad",
      "title": "Venus Planet Bedside Lamp"
    },
    "generator": "Sketchfab-15.17.0",
    "version": "2.0"
  },
  "bufferViews": [
    {
      "buffer": 0,
      "byteLength": 167388,
      "name": "floatBufferViews",
      "target": 34963
    },
    {
      "buffer": 0,
      "byteLength": 125232,
      "byteOffset": 167388,
      "byteStride": 8,
      "name": "floatBufferViews",
      "target": 34962
    },
    {
      "buffer": 0,
      "byteLength": 187848,
      "byteOffset": 292620,
      "byteStride": 12,
      "name": "floatBufferViews",
      "target": 34962
    },
    {
      "buffer": 0,
      "byteLength": 90944,
      "byteOffset": 480468,
      "byteStride": 16,
      "name": "floatBufferViews",
      "target": 34962
    },
    {
      "buffer": 0,
      "byteLength": 8004,
      "byteOffset": 571412,
      "name": "floatBufferViews"
    },
    {
      "buffer": 0,
      "byteLength": 32016,
      "byteOffset": 579416,
      "byteStride": 16,
      "name": "floatBufferViews"
    }
  ],
  "buffers": [
    {
      "byteLength": 611432,
      "uri": "scene.bin"
    }
  ],
  "extensionsUsed": [
    "KHR_materials_transmission",
    "KHR_materials_emissive_strength"
  ],
  "images": [
    {
      "uri": "textures/Mercury_base_baseColor.jpeg"
    },
    {
      "uri": "textures/Mercury_base_normal.png"
    },
    {
      "uri": "textures/Venus_atmosphere_baseColor.png"
    },
    {
      "uri": "textures/Venus_atmosphere_normal.png"
    },
    {
      "uri": "textures/Venus_atmosphere_transmission.png"
    },
    {
      "uri": "textures/Venus_planet_baseColor.jpeg"
    }
  ],
  "materials": [
    {
      "doubleSided": true,
      "name": "Mercury_base",
      "normalTexture": {
        "index": 1
      },
      "pbrMetallicRoughness": {
        "baseColorTexture": {
          "index": 0
        },
        "metallicFactor": 0.0,
        "roughnessFactor": 0.8040408205773457
      }
    },
    {
      "alphaMode": "BLEND",
      "doubleSided": true,
      "extensions": {
        "KHR_materials_transmission": {
          "transmissionFactor": 1.0,
          "transmissionTexture": {
            "index": 4
          }
        }
      },
      "name": "Venus_atmosphere",
      "normalTexture": {
        "index": 3
      },
      "pbrMetallicRoughness": {
        "baseColorTexture": {
          "index": 2
        },
        "metallicFactor": 0.0,
        "roughnessFactor": 0.0
      }
    },
    {
      "doubleSided": true,
      "emissiveFactor": [
        1.0,
        1.0,
        1.0
      ],
      "emissiveTexture": {
        "index": 5
      },
      "extensions": {
        "KHR_materials_emissive_strength": {
          "emissiveStrength": 1.5
        }
      },
      "name": "Venus_planet",
      "pbrMetallicRoughness": {
        "baseColorTexture": {
          "index": 5
        },
        "metallicFactor": 0.0,
        "roughnessFactor": 0.8211145618000169
      }
    }
  ],
  "meshes": [
    {
      "name": "Object_0",
      "primitives": [
        {
          "attributes": {
            "NORMAL": 1,
            "POSITION": 0,
            "TANGENT": 2,
            "TEXCOORD_0": 3,
            "TEXCOORD_1": 4
          },
          "indices": 5,
          "material": 0,
          "mode": 4
        }
      ]
    },
    {
      "name": "Object_1",
      "primitives": [
        {
          "attributes": {
            "NORMAL": 7,
            "POSITION": 6,
            "TANGENT": 8,
            "TEXCOORD_0": 9,
            "TEXCOORD_1": 10
          },
          "indices": 11,
          "material": 1,
          "mode": 4
        }
      ]
    },
    {
      "name": "Object_2",
      "primitives": [
        {
          "attributes": {
            "NORMAL": 13,
            "POSITION": 12,
            "TEXCOORD_0": 14,
            "TEXCOORD_1": 15
          },
          "indices": 16,
          "material": 2,
          "mode": 4
        }
      ]
    }
  ],
  "nodes": [
    {
      "children": [
        1
      ],
      "matrix": [
        1.0,
        0.0,
        0.0,
        0.0,
        0.0,
        2.220446049250313e-16,
        -1.0,
        0.0,
        0.0,
        1.0,
        2.220446049250313e-16,
        0.0,
        0.0,
        0.0,
        0.0,
        1.0
      ],
      "name": "Sketchfab_model"
    },
    {
      "children": [
        2
      ],
      "name": "root"
    },
    {
      "children": [
        3
      ],
      "matrix": [
        1.0,
        0.0,
        0.0,
        0.0,
        0.0,
        2.220446049250313e-16,
        1.0,
        0.0,
        0.0,
        -1.0,
        2.220446049250313e-16,
        0.0,
        0.0,
        0.0,
        0.0,
        1.0
      ],
      "name": "GLTF_SceneRootNode"
    },
    {
      "children": [
        4,
        6,
        8
      ],
      "name": "Venus-lamp_3"
    },
    {
      "children": [
        5
      ],
      "name": "Base_lamp_0"
    },
    {
      "mesh": 0,
      "name": "Object_5"
    },
    {
      "children": [
        7
      ],
      "name": "Glass_lamp_1"
    },
    {
      "mesh": 1,
      "name": "Object_7"
    },
    {
      "children": [
        9
      ],
      "name": "Light_lamp_2"
    },
    {
      "mesh": 2,
      "name": "Object_9"
    }
  ],
  "samplers": [
    {
      "magFilter": 9729,
      "minFilter": 9987,
      "wrapS": 10497,
      "wrapT": 10497
    }
  ],
  "scene": 0,
  "scenes": [
    {
      "name": "Sketchfab_Scene",
      "nodes": [
        0
      ]
    }
  ],
  "textures": [
    {
      "sampler": 0,
      "source": 0
    },
    {
      "sampler": 0,
      "source": 1
    },
    {
      "sampler": 0,
      "source": 2
    },
    {
      "sampler": 0,
      "source": 3
    },
    {
      "sampler": 0,
      "source": 4
    },
    {
      "sampler": 0,
      "source": 5
    }
  ]
}
